<mxfile host="app.diagrams.net" agent="Mozilla/5.0 (Windows NT 10.0; Win64; x64) AppleWebKit/537.36 (KHTML, like Gecko) Chrome/128.0.0.0 Safari/537.36 OPR/114.0.0.0" version="24.8.6" pages="4">
  <diagram name="Página-1" id="CtPqa_xbNTwJJ4dAygvX">
    <mxGraphModel dx="1162" dy="455" grid="1" gridSize="10" guides="1" tooltips="1" connect="1" arrows="1" fold="1" page="1" pageScale="1" pageWidth="827" pageHeight="1169" math="0" shadow="0">
      <root>
        <mxCell id="0" />
        <mxCell id="1" parent="0" />
        <mxCell id="DDvcCw0VZPJXMtPrvqrz-5" style="edgeStyle=orthogonalEdgeStyle;rounded=0;orthogonalLoop=1;jettySize=auto;html=1;exitX=1;exitY=0.5;exitDx=0;exitDy=0;" edge="1" parent="1" source="DDvcCw0VZPJXMtPrvqrz-1" target="DDvcCw0VZPJXMtPrvqrz-4">
          <mxGeometry relative="1" as="geometry" />
        </mxCell>
        <mxCell id="DDvcCw0VZPJXMtPrvqrz-1" value="Pessoa" style="whiteSpace=wrap;html=1;align=center;" vertex="1" parent="1">
          <mxGeometry x="150" y="380" width="100" height="40" as="geometry" />
        </mxCell>
        <mxCell id="DDvcCw0VZPJXMtPrvqrz-7" style="edgeStyle=orthogonalEdgeStyle;rounded=0;orthogonalLoop=1;jettySize=auto;html=1;exitX=0;exitY=0.5;exitDx=0;exitDy=0;entryX=1;entryY=0.5;entryDx=0;entryDy=0;" edge="1" parent="1" source="DDvcCw0VZPJXMtPrvqrz-2" target="DDvcCw0VZPJXMtPrvqrz-4">
          <mxGeometry relative="1" as="geometry" />
        </mxCell>
        <mxCell id="DDvcCw0VZPJXMtPrvqrz-2" value="Compania" style="whiteSpace=wrap;html=1;align=center;" vertex="1" parent="1">
          <mxGeometry x="560" y="380" width="100" height="40" as="geometry" />
        </mxCell>
        <mxCell id="DDvcCw0VZPJXMtPrvqrz-6" style="edgeStyle=orthogonalEdgeStyle;rounded=0;orthogonalLoop=1;jettySize=auto;html=1;exitX=0.5;exitY=1;exitDx=0;exitDy=0;entryX=0.5;entryY=0;entryDx=0;entryDy=0;" edge="1" parent="1" source="DDvcCw0VZPJXMtPrvqrz-3" target="DDvcCw0VZPJXMtPrvqrz-4">
          <mxGeometry relative="1" as="geometry" />
        </mxCell>
        <mxCell id="DDvcCw0VZPJXMtPrvqrz-3" value="Banco" style="whiteSpace=wrap;html=1;align=center;" vertex="1" parent="1">
          <mxGeometry x="354" y="190" width="100" height="40" as="geometry" />
        </mxCell>
        <mxCell id="DDvcCw0VZPJXMtPrvqrz-30" style="edgeStyle=orthogonalEdgeStyle;rounded=0;orthogonalLoop=1;jettySize=auto;html=1;entryX=0.5;entryY=0;entryDx=0;entryDy=0;" edge="1" parent="1" source="DDvcCw0VZPJXMtPrvqrz-4" target="DDvcCw0VZPJXMtPrvqrz-8">
          <mxGeometry relative="1" as="geometry" />
        </mxCell>
        <mxCell id="DDvcCw0VZPJXMtPrvqrz-4" value="U" style="ellipse;whiteSpace=wrap;html=1;aspect=fixed;" vertex="1" parent="1">
          <mxGeometry x="374" y="370" width="60" height="60" as="geometry" />
        </mxCell>
        <mxCell id="DDvcCw0VZPJXMtPrvqrz-8" value="Dono" style="whiteSpace=wrap;html=1;align=center;" vertex="1" parent="1">
          <mxGeometry x="354" y="500" width="100" height="40" as="geometry" />
        </mxCell>
        <mxCell id="DDvcCw0VZPJXMtPrvqrz-11" style="edgeStyle=orthogonalEdgeStyle;rounded=0;orthogonalLoop=1;jettySize=auto;html=1;exitX=0.5;exitY=1;exitDx=0;exitDy=0;" edge="1" parent="1" source="DDvcCw0VZPJXMtPrvqrz-10" target="DDvcCw0VZPJXMtPrvqrz-1">
          <mxGeometry relative="1" as="geometry">
            <Array as="points">
              <mxPoint x="270" y="290" />
              <mxPoint x="200" y="290" />
            </Array>
          </mxGeometry>
        </mxCell>
        <mxCell id="DDvcCw0VZPJXMtPrvqrz-10" value="Licensa" style="ellipse;whiteSpace=wrap;html=1;align=center;" vertex="1" parent="1">
          <mxGeometry x="220" y="270" width="100" height="40" as="geometry" />
        </mxCell>
        <mxCell id="DDvcCw0VZPJXMtPrvqrz-13" style="edgeStyle=orthogonalEdgeStyle;rounded=0;orthogonalLoop=1;jettySize=auto;html=1;" edge="1" parent="1" source="DDvcCw0VZPJXMtPrvqrz-12" target="DDvcCw0VZPJXMtPrvqrz-1">
          <mxGeometry relative="1" as="geometry">
            <Array as="points">
              <mxPoint x="200" y="290" />
            </Array>
          </mxGeometry>
        </mxCell>
        <mxCell id="DDvcCw0VZPJXMtPrvqrz-12" value="CPF" style="ellipse;whiteSpace=wrap;html=1;align=center;" vertex="1" parent="1">
          <mxGeometry x="80" y="270" width="100" height="40" as="geometry" />
        </mxCell>
        <mxCell id="DDvcCw0VZPJXMtPrvqrz-15" style="edgeStyle=orthogonalEdgeStyle;rounded=0;orthogonalLoop=1;jettySize=auto;html=1;entryX=0.5;entryY=0;entryDx=0;entryDy=0;" edge="1" parent="1" source="DDvcCw0VZPJXMtPrvqrz-14" target="DDvcCw0VZPJXMtPrvqrz-1">
          <mxGeometry relative="1" as="geometry">
            <Array as="points">
              <mxPoint x="200" y="240" />
            </Array>
          </mxGeometry>
        </mxCell>
        <mxCell id="DDvcCw0VZPJXMtPrvqrz-14" value="Nome" style="ellipse;whiteSpace=wrap;html=1;align=center;" vertex="1" parent="1">
          <mxGeometry x="220" y="220" width="100" height="40" as="geometry" />
        </mxCell>
        <mxCell id="DDvcCw0VZPJXMtPrvqrz-17" style="edgeStyle=orthogonalEdgeStyle;rounded=0;orthogonalLoop=1;jettySize=auto;html=1;exitX=1;exitY=0.5;exitDx=0;exitDy=0;" edge="1" parent="1" source="DDvcCw0VZPJXMtPrvqrz-16">
          <mxGeometry relative="1" as="geometry">
            <mxPoint x="200" y="380" as="targetPoint" />
          </mxGeometry>
        </mxCell>
        <mxCell id="DDvcCw0VZPJXMtPrvqrz-16" value="Endereço" style="ellipse;whiteSpace=wrap;html=1;align=center;" vertex="1" parent="1">
          <mxGeometry x="80" y="220" width="100" height="40" as="geometry" />
        </mxCell>
        <mxCell id="DDvcCw0VZPJXMtPrvqrz-22" style="edgeStyle=orthogonalEdgeStyle;rounded=0;orthogonalLoop=1;jettySize=auto;html=1;entryX=0.5;entryY=0;entryDx=0;entryDy=0;" edge="1" parent="1" source="DDvcCw0VZPJXMtPrvqrz-18" target="DDvcCw0VZPJXMtPrvqrz-3">
          <mxGeometry relative="1" as="geometry">
            <Array as="points">
              <mxPoint x="404" y="130" />
            </Array>
          </mxGeometry>
        </mxCell>
        <mxCell id="DDvcCw0VZPJXMtPrvqrz-18" value="B_nome" style="ellipse;whiteSpace=wrap;html=1;align=center;" vertex="1" parent="1">
          <mxGeometry x="430" y="110" width="100" height="40" as="geometry" />
        </mxCell>
        <mxCell id="DDvcCw0VZPJXMtPrvqrz-20" style="edgeStyle=orthogonalEdgeStyle;rounded=0;orthogonalLoop=1;jettySize=auto;html=1;exitX=1;exitY=0.5;exitDx=0;exitDy=0;entryX=0.5;entryY=0;entryDx=0;entryDy=0;" edge="1" parent="1" source="DDvcCw0VZPJXMtPrvqrz-19" target="DDvcCw0VZPJXMtPrvqrz-3">
          <mxGeometry relative="1" as="geometry" />
        </mxCell>
        <mxCell id="DDvcCw0VZPJXMtPrvqrz-19" value="B_endereço" style="ellipse;whiteSpace=wrap;html=1;align=center;" vertex="1" parent="1">
          <mxGeometry x="280" y="110" width="100" height="40" as="geometry" />
        </mxCell>
        <mxCell id="DDvcCw0VZPJXMtPrvqrz-25" style="edgeStyle=orthogonalEdgeStyle;rounded=0;orthogonalLoop=1;jettySize=auto;html=1;entryX=1;entryY=0.5;entryDx=0;entryDy=0;" edge="1" parent="1" source="DDvcCw0VZPJXMtPrvqrz-23" target="DDvcCw0VZPJXMtPrvqrz-2">
          <mxGeometry relative="1" as="geometry">
            <Array as="points">
              <mxPoint x="740" y="400" />
            </Array>
          </mxGeometry>
        </mxCell>
        <mxCell id="DDvcCw0VZPJXMtPrvqrz-23" value="C_nome" style="ellipse;whiteSpace=wrap;html=1;align=center;" vertex="1" parent="1">
          <mxGeometry x="690" y="440" width="100" height="40" as="geometry" />
        </mxCell>
        <mxCell id="DDvcCw0VZPJXMtPrvqrz-26" style="edgeStyle=orthogonalEdgeStyle;rounded=0;orthogonalLoop=1;jettySize=auto;html=1;entryX=1;entryY=0.5;entryDx=0;entryDy=0;" edge="1" parent="1" source="DDvcCw0VZPJXMtPrvqrz-24" target="DDvcCw0VZPJXMtPrvqrz-2">
          <mxGeometry relative="1" as="geometry">
            <Array as="points">
              <mxPoint x="740" y="400" />
            </Array>
          </mxGeometry>
        </mxCell>
        <mxCell id="DDvcCw0VZPJXMtPrvqrz-24" value="C_endereço" style="ellipse;whiteSpace=wrap;html=1;align=center;" vertex="1" parent="1">
          <mxGeometry x="690" y="320" width="100" height="40" as="geometry" />
        </mxCell>
        <mxCell id="DDvcCw0VZPJXMtPrvqrz-27" value="" style="shape=requiredInterface;html=1;verticalLabelPosition=bottom;sketch=0;rotation=90;" vertex="1" parent="1">
          <mxGeometry x="399" y="450" width="10" height="20" as="geometry" />
        </mxCell>
      </root>
    </mxGraphModel>
  </diagram>
  <diagram id="0yoe2IyP8j-hNocfx2b8" name="Página-2">
    <mxGraphModel dx="1402" dy="549" grid="1" gridSize="10" guides="1" tooltips="1" connect="1" arrows="1" fold="1" page="1" pageScale="1" pageWidth="827" pageHeight="1169" math="0" shadow="0">
      <root>
        <mxCell id="0" />
        <mxCell id="1" parent="0" />
        <mxCell id="NFiIhRRaNChYwAs4O_Md-1" value="Cliente" style="whiteSpace=wrap;html=1;align=center;" vertex="1" parent="1">
          <mxGeometry x="40" y="160" width="100" height="40" as="geometry" />
        </mxCell>
        <mxCell id="NFiIhRRaNChYwAs4O_Md-3" value="Pedido" style="whiteSpace=wrap;html=1;align=center;" vertex="1" parent="1">
          <mxGeometry x="363.5" y="160" width="100" height="40" as="geometry" />
        </mxCell>
        <mxCell id="NFiIhRRaNChYwAs4O_Md-4" value="Responsavel" style="whiteSpace=wrap;html=1;align=center;" vertex="1" parent="1">
          <mxGeometry x="364" y="380" width="100" height="40" as="geometry" />
        </mxCell>
        <mxCell id="NFiIhRRaNChYwAs4O_Md-5" value="Ordem de serviço" style="whiteSpace=wrap;html=1;align=center;" vertex="1" parent="1">
          <mxGeometry x="710" y="380" width="100" height="40" as="geometry" />
        </mxCell>
        <mxCell id="NFiIhRRaNChYwAs4O_Md-6" value="Gera" style="shape=rhombus;perimeter=rhombusPerimeter;whiteSpace=wrap;html=1;align=center;" vertex="1" parent="1">
          <mxGeometry x="210" y="160" width="80" height="40" as="geometry" />
        </mxCell>
        <mxCell id="NFiIhRRaNChYwAs4O_Md-7" value="Possui" style="shape=rhombus;perimeter=rhombusPerimeter;whiteSpace=wrap;html=1;align=center;" vertex="1" parent="1">
          <mxGeometry x="374" y="270" width="80" height="40" as="geometry" />
        </mxCell>
        <mxCell id="NFiIhRRaNChYwAs4O_Md-8" value="Executa" style="shape=rhombus;perimeter=rhombusPerimeter;whiteSpace=wrap;html=1;align=center;" vertex="1" parent="1">
          <mxGeometry x="560" y="270" width="80" height="40" as="geometry" />
        </mxCell>
        <mxCell id="NFiIhRRaNChYwAs4O_Md-16" value="" style="endArrow=none;html=1;rounded=0;entryX=0;entryY=0.5;entryDx=0;entryDy=0;exitX=1;exitY=0.5;exitDx=0;exitDy=0;" edge="1" parent="1" source="NFiIhRRaNChYwAs4O_Md-1" target="NFiIhRRaNChYwAs4O_Md-6">
          <mxGeometry relative="1" as="geometry">
            <mxPoint x="140" y="230" as="sourcePoint" />
            <mxPoint x="300" y="230" as="targetPoint" />
          </mxGeometry>
        </mxCell>
        <mxCell id="NFiIhRRaNChYwAs4O_Md-17" value="" style="endArrow=none;html=1;rounded=0;entryX=0;entryY=0.5;entryDx=0;entryDy=0;exitX=1;exitY=0.5;exitDx=0;exitDy=0;" edge="1" parent="1" target="NFiIhRRaNChYwAs4O_Md-3">
          <mxGeometry relative="1" as="geometry">
            <mxPoint x="290" y="179.66" as="sourcePoint" />
            <mxPoint x="360" y="179.66" as="targetPoint" />
          </mxGeometry>
        </mxCell>
        <mxCell id="NFiIhRRaNChYwAs4O_Md-18" value="" style="endArrow=none;html=1;rounded=0;entryX=0.5;entryY=0;entryDx=0;entryDy=0;exitX=0.5;exitY=1;exitDx=0;exitDy=0;" edge="1" parent="1" source="NFiIhRRaNChYwAs4O_Md-3" target="NFiIhRRaNChYwAs4O_Md-7">
          <mxGeometry relative="1" as="geometry">
            <mxPoint x="250" y="250" as="sourcePoint" />
            <mxPoint x="320" y="250" as="targetPoint" />
          </mxGeometry>
        </mxCell>
        <mxCell id="NFiIhRRaNChYwAs4O_Md-19" value="" style="endArrow=none;html=1;rounded=0;entryX=0.5;entryY=0;entryDx=0;entryDy=0;exitX=0.5;exitY=1;exitDx=0;exitDy=0;" edge="1" parent="1" source="NFiIhRRaNChYwAs4O_Md-7" target="NFiIhRRaNChYwAs4O_Md-4">
          <mxGeometry relative="1" as="geometry">
            <mxPoint x="340" y="300" as="sourcePoint" />
            <mxPoint x="340" y="370" as="targetPoint" />
          </mxGeometry>
        </mxCell>
        <mxCell id="NFiIhRRaNChYwAs4O_Md-20" value="" style="endArrow=none;html=1;rounded=0;entryX=0;entryY=0.5;entryDx=0;entryDy=0;exitX=1;exitY=0.5;exitDx=0;exitDy=0;" edge="1" parent="1" source="NFiIhRRaNChYwAs4O_Md-3" target="NFiIhRRaNChYwAs4O_Md-8">
          <mxGeometry relative="1" as="geometry">
            <mxPoint x="470" y="230" as="sourcePoint" />
            <mxPoint x="470" y="300" as="targetPoint" />
          </mxGeometry>
        </mxCell>
        <mxCell id="NFiIhRRaNChYwAs4O_Md-21" value="" style="endArrow=none;html=1;rounded=0;entryX=0;entryY=0.5;entryDx=0;entryDy=0;exitX=1;exitY=0.5;exitDx=0;exitDy=0;" edge="1" parent="1" source="NFiIhRRaNChYwAs4O_Md-8" target="NFiIhRRaNChYwAs4O_Md-5">
          <mxGeometry relative="1" as="geometry">
            <mxPoint x="600" y="310" as="sourcePoint" />
            <mxPoint x="696" y="420" as="targetPoint" />
          </mxGeometry>
        </mxCell>
        <mxCell id="NFiIhRRaNChYwAs4O_Md-22" value="1,1" style="text;strokeColor=none;fillColor=none;spacingLeft=4;spacingRight=4;overflow=hidden;rotatable=0;points=[[0,0.5],[1,0.5]];portConstraint=eastwest;fontSize=12;whiteSpace=wrap;html=1;" vertex="1" parent="1">
          <mxGeometry x="140" y="150" width="40" height="30" as="geometry" />
        </mxCell>
        <mxCell id="NFiIhRRaNChYwAs4O_Md-23" value="0,N" style="text;strokeColor=none;fillColor=none;spacingLeft=4;spacingRight=4;overflow=hidden;rotatable=0;points=[[0,0.5],[1,0.5]];portConstraint=eastwest;fontSize=12;whiteSpace=wrap;html=1;" vertex="1" parent="1">
          <mxGeometry x="334" y="150" width="40" height="30" as="geometry" />
        </mxCell>
        <mxCell id="NFiIhRRaNChYwAs4O_Md-24" value="1,0" style="text;strokeColor=none;fillColor=none;spacingLeft=4;spacingRight=4;overflow=hidden;rotatable=0;points=[[0,0.5],[1,0.5]];portConstraint=eastwest;fontSize=12;whiteSpace=wrap;html=1;" vertex="1" parent="1">
          <mxGeometry x="381" y="350" width="26" height="30" as="geometry" />
        </mxCell>
        <mxCell id="NFiIhRRaNChYwAs4O_Md-26" value="0,N" style="text;strokeColor=none;fillColor=none;spacingLeft=4;spacingRight=4;overflow=hidden;rotatable=0;points=[[0,0.5],[1,0.5]];portConstraint=eastwest;fontSize=12;whiteSpace=wrap;html=1;" vertex="1" parent="1">
          <mxGeometry x="374" y="200" width="40" height="30" as="geometry" />
        </mxCell>
        <mxCell id="NFiIhRRaNChYwAs4O_Md-27" value="1,1" style="text;strokeColor=none;fillColor=none;spacingLeft=4;spacingRight=4;overflow=hidden;rotatable=0;points=[[0,0.5],[1,0.5]];portConstraint=eastwest;fontSize=12;whiteSpace=wrap;html=1;" vertex="1" parent="1">
          <mxGeometry x="464" y="160" width="40" height="30" as="geometry" />
        </mxCell>
        <mxCell id="NFiIhRRaNChYwAs4O_Md-28" value="1,N" style="text;strokeColor=none;fillColor=none;spacingLeft=4;spacingRight=4;overflow=hidden;rotatable=0;points=[[0,0.5],[1,0.5]];portConstraint=eastwest;fontSize=12;whiteSpace=wrap;html=1;" vertex="1" parent="1">
          <mxGeometry x="680" y="400" width="40" height="30" as="geometry" />
        </mxCell>
      </root>
    </mxGraphModel>
  </diagram>
  <diagram id="r61YNVNVkMJZaBsN-gws" name="Faculdade">
    <mxGraphModel dx="968" dy="379" grid="1" gridSize="10" guides="1" tooltips="1" connect="1" arrows="1" fold="1" page="1" pageScale="1" pageWidth="827" pageHeight="1169" math="0" shadow="0">
      <root>
        <mxCell id="0" />
        <mxCell id="1" parent="0" />
        <mxCell id="4Wo3x2A2jE3QkxlKr2SE-1" value="Aluno" style="whiteSpace=wrap;html=1;align=center;" vertex="1" parent="1">
          <mxGeometry x="94" y="310" width="100" height="40" as="geometry" />
        </mxCell>
        <mxCell id="4Wo3x2A2jE3QkxlKr2SE-2" value="Professor" style="whiteSpace=wrap;html=1;align=center;" vertex="1" parent="1">
          <mxGeometry x="324" y="450" width="100" height="40" as="geometry" />
        </mxCell>
        <mxCell id="4Wo3x2A2jE3QkxlKr2SE-3" value="Disciplina" style="whiteSpace=wrap;html=1;align=center;" vertex="1" parent="1">
          <mxGeometry x="404" y="310" width="100" height="40" as="geometry" />
        </mxCell>
        <mxCell id="4Wo3x2A2jE3QkxlKr2SE-4" value="Curso" style="whiteSpace=wrap;html=1;align=center;" vertex="1" parent="1">
          <mxGeometry x="488" y="450" width="100" height="40" as="geometry" />
        </mxCell>
        <mxCell id="4Wo3x2A2jE3QkxlKr2SE-5" value="Departamento" style="whiteSpace=wrap;html=1;align=center;" vertex="1" parent="1">
          <mxGeometry x="324" y="600" width="100" height="40" as="geometry" />
        </mxCell>
        <mxCell id="4Wo3x2A2jE3QkxlKr2SE-6" value="" style="endArrow=none;html=1;rounded=0;exitX=1;exitY=0.5;exitDx=0;exitDy=0;entryX=0;entryY=0.5;entryDx=0;entryDy=0;" edge="1" parent="1" source="4Wo3x2A2jE3QkxlKr2SE-1" target="4Wo3x2A2jE3QkxlKr2SE-3">
          <mxGeometry relative="1" as="geometry">
            <mxPoint x="193.99999999999977" y="330" as="sourcePoint" />
            <mxPoint x="384" y="350" as="targetPoint" />
          </mxGeometry>
        </mxCell>
        <mxCell id="4Wo3x2A2jE3QkxlKr2SE-8" value="M" style="text;strokeColor=none;fillColor=none;spacingLeft=4;spacingRight=4;overflow=hidden;rotatable=0;points=[[0,0.5],[1,0.5]];portConstraint=eastwest;fontSize=12;whiteSpace=wrap;html=1;" vertex="1" parent="1">
          <mxGeometry x="384" y="310" width="40" height="30" as="geometry" />
        </mxCell>
        <mxCell id="4Wo3x2A2jE3QkxlKr2SE-7" value="N" style="text;strokeColor=none;fillColor=none;spacingLeft=4;spacingRight=4;overflow=hidden;rotatable=0;points=[[0,0.5],[1,0.5]];portConstraint=eastwest;fontSize=12;whiteSpace=wrap;html=1;" vertex="1" parent="1">
          <mxGeometry x="194" y="310" width="40" height="30" as="geometry" />
        </mxCell>
        <mxCell id="4Wo3x2A2jE3QkxlKr2SE-12" value="" style="endArrow=none;html=1;rounded=0;exitX=0.5;exitY=0;exitDx=0;exitDy=0;entryX=0.5;entryY=1;entryDx=0;entryDy=0;" edge="1" parent="1" source="4Wo3x2A2jE3QkxlKr2SE-4" target="4Wo3x2A2jE3QkxlKr2SE-3">
          <mxGeometry relative="1" as="geometry">
            <mxPoint x="444" y="390" as="sourcePoint" />
            <mxPoint x="604" y="390" as="targetPoint" />
            <Array as="points">
              <mxPoint x="538" y="420" />
              <mxPoint x="538" y="390" />
              <mxPoint x="454" y="390" />
            </Array>
          </mxGeometry>
        </mxCell>
        <mxCell id="4Wo3x2A2jE3QkxlKr2SE-13" value="M" style="resizable=0;html=1;whiteSpace=wrap;align=left;verticalAlign=bottom;" connectable="0" vertex="1" parent="4Wo3x2A2jE3QkxlKr2SE-12">
          <mxGeometry x="-1" relative="1" as="geometry" />
        </mxCell>
        <mxCell id="4Wo3x2A2jE3QkxlKr2SE-14" value="N" style="resizable=0;html=1;whiteSpace=wrap;align=right;verticalAlign=bottom;" connectable="0" vertex="1" parent="4Wo3x2A2jE3QkxlKr2SE-12">
          <mxGeometry x="1" relative="1" as="geometry">
            <mxPoint x="-10" y="20" as="offset" />
          </mxGeometry>
        </mxCell>
        <mxCell id="4Wo3x2A2jE3QkxlKr2SE-16" value="Pre requisitos" style="whiteSpace=wrap;html=1;align=center;" vertex="1" parent="1">
          <mxGeometry x="634" y="210" width="100" height="40" as="geometry" />
        </mxCell>
        <mxCell id="4Wo3x2A2jE3QkxlKr2SE-20" value="" style="endArrow=none;html=1;rounded=0;exitX=0.5;exitY=0;exitDx=0;exitDy=0;entryX=0.5;entryY=1;entryDx=0;entryDy=0;" edge="1" parent="1" source="4Wo3x2A2jE3QkxlKr2SE-2" target="4Wo3x2A2jE3QkxlKr2SE-3">
          <mxGeometry relative="1" as="geometry">
            <mxPoint x="364" y="420" as="sourcePoint" />
            <mxPoint x="524" y="420" as="targetPoint" />
            <Array as="points">
              <mxPoint x="374" y="390" />
              <mxPoint x="454" y="390" />
            </Array>
          </mxGeometry>
        </mxCell>
        <mxCell id="4Wo3x2A2jE3QkxlKr2SE-21" value="1" style="text;strokeColor=none;fillColor=none;spacingLeft=4;spacingRight=4;overflow=hidden;rotatable=0;points=[[0,0.5],[1,0.5]];portConstraint=eastwest;fontSize=12;whiteSpace=wrap;html=1;" vertex="1" parent="1">
          <mxGeometry x="354" y="430" width="40" height="30" as="geometry" />
        </mxCell>
        <mxCell id="4Wo3x2A2jE3QkxlKr2SE-22" value="" style="endArrow=none;html=1;rounded=0;entryX=1;entryY=0.5;entryDx=0;entryDy=0;exitX=0;exitY=0.5;exitDx=0;exitDy=0;" edge="1" parent="1" source="4Wo3x2A2jE3QkxlKr2SE-16" target="4Wo3x2A2jE3QkxlKr2SE-3">
          <mxGeometry relative="1" as="geometry">
            <mxPoint x="464" y="430" as="sourcePoint" />
            <mxPoint x="624" y="430" as="targetPoint" />
            <Array as="points">
              <mxPoint x="560" y="230" />
              <mxPoint x="560" y="330" />
            </Array>
          </mxGeometry>
        </mxCell>
        <mxCell id="4Wo3x2A2jE3QkxlKr2SE-23" value="M" style="resizable=0;html=1;whiteSpace=wrap;align=left;verticalAlign=bottom;" connectable="0" vertex="1" parent="4Wo3x2A2jE3QkxlKr2SE-22">
          <mxGeometry x="-1" relative="1" as="geometry">
            <mxPoint x="-20" as="offset" />
          </mxGeometry>
        </mxCell>
        <mxCell id="4Wo3x2A2jE3QkxlKr2SE-24" value="N" style="resizable=0;html=1;whiteSpace=wrap;align=right;verticalAlign=bottom;" connectable="0" vertex="1" parent="4Wo3x2A2jE3QkxlKr2SE-22">
          <mxGeometry x="1" relative="1" as="geometry">
            <mxPoint x="20" as="offset" />
          </mxGeometry>
        </mxCell>
        <mxCell id="4Wo3x2A2jE3QkxlKr2SE-25" value="" style="endArrow=none;html=1;rounded=0;dashed=1;dashPattern=1 2;entryX=0.5;entryY=1;entryDx=0;entryDy=0;exitX=0.5;exitY=0;exitDx=0;exitDy=0;" edge="1" parent="1" source="4Wo3x2A2jE3QkxlKr2SE-5" target="4Wo3x2A2jE3QkxlKr2SE-2">
          <mxGeometry relative="1" as="geometry">
            <mxPoint x="474" y="550" as="sourcePoint" />
            <mxPoint x="634" y="550" as="targetPoint" />
          </mxGeometry>
        </mxCell>
        <mxCell id="4Wo3x2A2jE3QkxlKr2SE-26" value="N" style="resizable=0;html=1;whiteSpace=wrap;align=left;verticalAlign=bottom;" connectable="0" vertex="1" parent="4Wo3x2A2jE3QkxlKr2SE-25">
          <mxGeometry x="-1" relative="1" as="geometry">
            <mxPoint x="-20" y="-90" as="offset" />
          </mxGeometry>
        </mxCell>
        <mxCell id="4Wo3x2A2jE3QkxlKr2SE-27" value="1" style="resizable=0;html=1;whiteSpace=wrap;align=right;verticalAlign=bottom;" connectable="0" vertex="1" parent="4Wo3x2A2jE3QkxlKr2SE-25">
          <mxGeometry x="1" relative="1" as="geometry">
            <mxPoint x="10" y="110" as="offset" />
          </mxGeometry>
        </mxCell>
        <mxCell id="4Wo3x2A2jE3QkxlKr2SE-34" style="edgeStyle=orthogonalEdgeStyle;rounded=0;orthogonalLoop=1;jettySize=auto;html=1;entryX=0.5;entryY=1;entryDx=0;entryDy=0;" edge="1" parent="1" source="4Wo3x2A2jE3QkxlKr2SE-28" target="4Wo3x2A2jE3QkxlKr2SE-5">
          <mxGeometry relative="1" as="geometry">
            <Array as="points">
              <mxPoint x="374" y="690" />
            </Array>
          </mxGeometry>
        </mxCell>
        <mxCell id="4Wo3x2A2jE3QkxlKr2SE-28" value="&lt;span style=&quot;border-bottom: 1px dotted&quot;&gt;Nome&lt;/span&gt;" style="ellipse;whiteSpace=wrap;html=1;align=center;" vertex="1" parent="1">
          <mxGeometry x="234" y="670" width="100" height="40" as="geometry" />
        </mxCell>
        <mxCell id="4Wo3x2A2jE3QkxlKr2SE-35" style="edgeStyle=orthogonalEdgeStyle;rounded=0;orthogonalLoop=1;jettySize=auto;html=1;" edge="1" parent="1" source="4Wo3x2A2jE3QkxlKr2SE-29">
          <mxGeometry relative="1" as="geometry">
            <mxPoint x="374" y="640" as="targetPoint" />
          </mxGeometry>
        </mxCell>
        <mxCell id="4Wo3x2A2jE3QkxlKr2SE-29" value="Local" style="ellipse;whiteSpace=wrap;html=1;align=center;" vertex="1" parent="1">
          <mxGeometry x="414" y="670" width="100" height="40" as="geometry" />
        </mxCell>
        <mxCell id="4Wo3x2A2jE3QkxlKr2SE-33" style="edgeStyle=orthogonalEdgeStyle;rounded=0;orthogonalLoop=1;jettySize=auto;html=1;entryX=0.5;entryY=1;entryDx=0;entryDy=0;" edge="1" parent="1" source="4Wo3x2A2jE3QkxlKr2SE-30" target="4Wo3x2A2jE3QkxlKr2SE-5">
          <mxGeometry relative="1" as="geometry" />
        </mxCell>
        <mxCell id="4Wo3x2A2jE3QkxlKr2SE-30" value="&lt;span style=&quot;border-bottom: 1px dotted&quot;&gt;Campus&lt;/span&gt;" style="ellipse;whiteSpace=wrap;html=1;align=center;" vertex="1" parent="1">
          <mxGeometry x="324" y="740" width="100" height="40" as="geometry" />
        </mxCell>
        <mxCell id="4Wo3x2A2jE3QkxlKr2SE-36" value="Matriculado" style="shape=rhombus;perimeter=rhombusPerimeter;whiteSpace=wrap;html=1;align=center;" vertex="1" parent="1">
          <mxGeometry x="254" y="310" width="80" height="40" as="geometry" />
        </mxCell>
        <mxCell id="4Wo3x2A2jE3QkxlKr2SE-37" value="" style="endArrow=none;html=1;rounded=0;exitX=0.5;exitY=1;exitDx=0;exitDy=0;entryX=1;entryY=0.5;entryDx=0;entryDy=0;" edge="1" parent="1" source="4Wo3x2A2jE3QkxlKr2SE-4" target="4Wo3x2A2jE3QkxlKr2SE-5">
          <mxGeometry relative="1" as="geometry">
            <mxPoint x="414" y="530" as="sourcePoint" />
            <mxPoint x="574" y="530" as="targetPoint" />
            <Array as="points">
              <mxPoint x="538" y="620" />
            </Array>
          </mxGeometry>
        </mxCell>
        <mxCell id="4Wo3x2A2jE3QkxlKr2SE-38" value="1" style="text;strokeColor=none;fillColor=none;spacingLeft=4;spacingRight=4;overflow=hidden;rotatable=0;points=[[0,0.5],[1,0.5]];portConstraint=eastwest;fontSize=12;whiteSpace=wrap;html=1;" vertex="1" parent="1">
          <mxGeometry x="424" y="590" width="40" height="30" as="geometry" />
        </mxCell>
        <mxCell id="4Wo3x2A2jE3QkxlKr2SE-39" value="N" style="text;strokeColor=none;fillColor=none;spacingLeft=4;spacingRight=4;overflow=hidden;rotatable=0;points=[[0,0.5],[1,0.5]];portConstraint=eastwest;fontSize=12;whiteSpace=wrap;html=1;" vertex="1" parent="1">
          <mxGeometry x="514" y="490" width="40" height="30" as="geometry" />
        </mxCell>
        <mxCell id="4Wo3x2A2jE3QkxlKr2SE-41" value="Pessoa" style="whiteSpace=wrap;html=1;align=center;" vertex="1" parent="1">
          <mxGeometry x="94" y="450" width="100" height="40" as="geometry" />
        </mxCell>
        <mxCell id="4Wo3x2A2jE3QkxlKr2SE-42" value="Nome" style="ellipse;whiteSpace=wrap;html=1;align=center;" vertex="1" parent="1">
          <mxGeometry x="20" y="530" width="100" height="40" as="geometry" />
        </mxCell>
        <mxCell id="4Wo3x2A2jE3QkxlKr2SE-43" value="CPF" style="ellipse;whiteSpace=wrap;html=1;align=center;" vertex="1" parent="1">
          <mxGeometry x="170" y="530" width="100" height="40" as="geometry" />
        </mxCell>
        <mxCell id="4Wo3x2A2jE3QkxlKr2SE-44" value="Endereço" style="ellipse;whiteSpace=wrap;html=1;align=center;" vertex="1" parent="1">
          <mxGeometry x="94" y="600" width="100" height="40" as="geometry" />
        </mxCell>
        <mxCell id="4Wo3x2A2jE3QkxlKr2SE-45" value="" style="endArrow=none;html=1;rounded=0;exitX=0.5;exitY=0;exitDx=0;exitDy=0;entryX=0.5;entryY=1;entryDx=0;entryDy=0;" edge="1" parent="1" source="4Wo3x2A2jE3QkxlKr2SE-44" target="4Wo3x2A2jE3QkxlKr2SE-41">
          <mxGeometry relative="1" as="geometry">
            <mxPoint x="134" y="504.76" as="sourcePoint" />
            <mxPoint x="294" y="504.76" as="targetPoint" />
          </mxGeometry>
        </mxCell>
        <mxCell id="4Wo3x2A2jE3QkxlKr2SE-46" value="" style="endArrow=none;html=1;rounded=0;exitX=1;exitY=0.5;exitDx=0;exitDy=0;entryX=0;entryY=0.5;entryDx=0;entryDy=0;" edge="1" parent="1" source="4Wo3x2A2jE3QkxlKr2SE-42" target="4Wo3x2A2jE3QkxlKr2SE-43">
          <mxGeometry relative="1" as="geometry">
            <mxPoint x="200" y="540" as="sourcePoint" />
            <mxPoint x="360" y="540" as="targetPoint" />
          </mxGeometry>
        </mxCell>
        <mxCell id="4Wo3x2A2jE3QkxlKr2SE-49" value="1" style="text;strokeColor=none;fillColor=none;spacingLeft=4;spacingRight=4;overflow=hidden;rotatable=0;points=[[0,0.5],[1,0.5]];portConstraint=eastwest;fontSize=12;whiteSpace=wrap;html=1;" vertex="1" parent="1">
          <mxGeometry x="140" y="430" width="40" height="30" as="geometry" />
        </mxCell>
        <mxCell id="4Wo3x2A2jE3QkxlKr2SE-51" value="1" style="text;strokeColor=none;fillColor=none;spacingLeft=4;spacingRight=4;overflow=hidden;rotatable=0;points=[[0,0.5],[1,0.5]];portConstraint=eastwest;fontSize=12;whiteSpace=wrap;html=1;" vertex="1" parent="1">
          <mxGeometry x="194" y="450" width="40" height="30" as="geometry" />
        </mxCell>
        <mxCell id="4Wo3x2A2jE3QkxlKr2SE-53" value="" style="endArrow=none;html=1;rounded=0;dashed=1;dashPattern=1 2;exitX=1;exitY=0.5;exitDx=0;exitDy=0;entryX=0;entryY=0.5;entryDx=0;entryDy=0;" edge="1" parent="1" source="4Wo3x2A2jE3QkxlKr2SE-41" target="4Wo3x2A2jE3QkxlKr2SE-2">
          <mxGeometry relative="1" as="geometry">
            <mxPoint x="240" y="490" as="sourcePoint" />
            <mxPoint x="360" y="440" as="targetPoint" />
          </mxGeometry>
        </mxCell>
        <mxCell id="4Wo3x2A2jE3QkxlKr2SE-54" value="1" style="resizable=0;html=1;whiteSpace=wrap;align=right;verticalAlign=bottom;" connectable="0" vertex="1" parent="4Wo3x2A2jE3QkxlKr2SE-53">
          <mxGeometry x="1" relative="1" as="geometry" />
        </mxCell>
        <mxCell id="4Wo3x2A2jE3QkxlKr2SE-55" value="" style="endArrow=none;html=1;rounded=0;dashed=1;dashPattern=1 2;exitX=0.5;exitY=0;exitDx=0;exitDy=0;entryX=0.5;entryY=1;entryDx=0;entryDy=0;" edge="1" parent="1" source="4Wo3x2A2jE3QkxlKr2SE-41" target="4Wo3x2A2jE3QkxlKr2SE-1">
          <mxGeometry relative="1" as="geometry">
            <mxPoint x="155" y="390" as="sourcePoint" />
            <mxPoint x="285" y="390" as="targetPoint" />
          </mxGeometry>
        </mxCell>
        <mxCell id="4Wo3x2A2jE3QkxlKr2SE-56" value="1" style="resizable=0;html=1;whiteSpace=wrap;align=right;verticalAlign=bottom;" connectable="0" vertex="1" parent="4Wo3x2A2jE3QkxlKr2SE-55">
          <mxGeometry x="1" relative="1" as="geometry">
            <mxPoint y="20" as="offset" />
          </mxGeometry>
        </mxCell>
        <mxCell id="4Wo3x2A2jE3QkxlKr2SE-57" value="Periodo" style="whiteSpace=wrap;html=1;align=center;" vertex="1" parent="1">
          <mxGeometry x="634" y="310" width="100" height="40" as="geometry" />
        </mxCell>
        <mxCell id="4Wo3x2A2jE3QkxlKr2SE-58" value="" style="endArrow=none;html=1;rounded=0;exitX=1;exitY=0.5;exitDx=0;exitDy=0;entryX=0;entryY=0.5;entryDx=0;entryDy=0;" edge="1" parent="1" source="4Wo3x2A2jE3QkxlKr2SE-3" target="4Wo3x2A2jE3QkxlKr2SE-57">
          <mxGeometry relative="1" as="geometry">
            <mxPoint x="600" y="380" as="sourcePoint" />
            <mxPoint x="760" y="380" as="targetPoint" />
          </mxGeometry>
        </mxCell>
        <mxCell id="4Wo3x2A2jE3QkxlKr2SE-59" value="Ano" style="ellipse;whiteSpace=wrap;html=1;align=center;" vertex="1" parent="1">
          <mxGeometry x="780" y="270" width="100" height="40" as="geometry" />
        </mxCell>
        <mxCell id="4Wo3x2A2jE3QkxlKr2SE-60" value="Semestre" style="ellipse;whiteSpace=wrap;html=1;align=center;" vertex="1" parent="1">
          <mxGeometry x="780" y="350" width="100" height="40" as="geometry" />
        </mxCell>
        <mxCell id="4Wo3x2A2jE3QkxlKr2SE-61" value="" style="endArrow=none;html=1;rounded=0;exitX=1;exitY=0.5;exitDx=0;exitDy=0;entryX=0.5;entryY=0;entryDx=0;entryDy=0;" edge="1" parent="1" source="4Wo3x2A2jE3QkxlKr2SE-57" target="4Wo3x2A2jE3QkxlKr2SE-60">
          <mxGeometry relative="1" as="geometry">
            <mxPoint x="770" y="329.76" as="sourcePoint" />
            <mxPoint x="830" y="330" as="targetPoint" />
            <Array as="points">
              <mxPoint x="830" y="330" />
            </Array>
          </mxGeometry>
        </mxCell>
        <mxCell id="4Wo3x2A2jE3QkxlKr2SE-62" value="" style="endArrow=none;html=1;rounded=0;exitX=1;exitY=0.5;exitDx=0;exitDy=0;entryX=0.5;entryY=1;entryDx=0;entryDy=0;" edge="1" parent="1" source="4Wo3x2A2jE3QkxlKr2SE-57" target="4Wo3x2A2jE3QkxlKr2SE-59">
          <mxGeometry relative="1" as="geometry">
            <mxPoint x="860" y="330" as="sourcePoint" />
            <mxPoint x="956" y="350" as="targetPoint" />
            <Array as="points">
              <mxPoint x="830" y="330" />
            </Array>
          </mxGeometry>
        </mxCell>
        <mxCell id="4Wo3x2A2jE3QkxlKr2SE-63" value="M" style="resizable=0;html=1;whiteSpace=wrap;align=left;verticalAlign=bottom;" connectable="0" vertex="1" parent="1">
          <mxGeometry x="620" y="330" as="geometry" />
        </mxCell>
      </root>
    </mxGraphModel>
  </diagram>
  <diagram id="6U-EhRchyYGH--RV_1Gk" name="E-Comerce">
    <mxGraphModel dx="968" dy="1548" grid="1" gridSize="10" guides="1" tooltips="1" connect="1" arrows="1" fold="1" page="1" pageScale="1" pageWidth="827" pageHeight="1169" math="0" shadow="0">
      <root>
        <mxCell id="0" />
        <mxCell id="1" parent="0" />
        <mxCell id="76qnz5FTZ4_R1RlBjfYo-3" value="Cliente" style="whiteSpace=wrap;html=1;align=center;" vertex="1" parent="1">
          <mxGeometry x="30" y="280" width="100" height="40" as="geometry" />
        </mxCell>
        <mxCell id="76qnz5FTZ4_R1RlBjfYo-4" value="Produto" style="whiteSpace=wrap;html=1;align=center;" vertex="1" parent="1">
          <mxGeometry x="410" y="420" width="104" height="40" as="geometry" />
        </mxCell>
        <mxCell id="76qnz5FTZ4_R1RlBjfYo-47" style="edgeStyle=orthogonalEdgeStyle;rounded=0;orthogonalLoop=1;jettySize=auto;html=1;entryX=0.5;entryY=1;entryDx=0;entryDy=0;" edge="1" parent="1" source="76qnz5FTZ4_R1RlBjfYo-5" target="76qnz5FTZ4_R1RlBjfYo-4">
          <mxGeometry relative="1" as="geometry" />
        </mxCell>
        <mxCell id="76qnz5FTZ4_R1RlBjfYo-5" value="Estoque&lt;span style=&quot;color: rgba(0, 0, 0, 0); font-family: monospace; font-size: 0px; text-align: start; text-wrap: nowrap;&quot;&gt;%3CmxGraphModel%3E%3Croot%3E%3CmxCell%20id%3D%220%22%2F%3E%3CmxCell%20id%3D%221%22%20parent%3D%220%22%2F%3E%3CmxCell%20id%3D%222%22%20value%3D%22Cliente%22%20style%3D%22whiteSpace%3Dwrap%3Bhtml%3D1%3Balign%3Dcenter%3B%22%20vertex%3D%221%22%20parent%3D%221%22%3E%3CmxGeometry%20x%3D%2230%22%20y%3D%22230%22%20width%3D%22100%22%20height%3D%2240%22%20as%3D%22geometry%22%2F%3E%3C%2FmxCell%3E%3C%2Froot%3E%3C%2FmxGraphModel%3E&lt;/span&gt;" style="whiteSpace=wrap;html=1;align=center;" vertex="1" parent="1">
          <mxGeometry x="412" y="550" width="100" height="40" as="geometry" />
        </mxCell>
        <mxCell id="76qnz5FTZ4_R1RlBjfYo-48" style="edgeStyle=orthogonalEdgeStyle;rounded=0;orthogonalLoop=1;jettySize=auto;html=1;entryX=1;entryY=0.5;entryDx=0;entryDy=0;" edge="1" parent="1" source="76qnz5FTZ4_R1RlBjfYo-6" target="76qnz5FTZ4_R1RlBjfYo-5">
          <mxGeometry relative="1" as="geometry" />
        </mxCell>
        <mxCell id="76qnz5FTZ4_R1RlBjfYo-6" value="Fornecedor" style="whiteSpace=wrap;html=1;align=center;" vertex="1" parent="1">
          <mxGeometry x="630" y="550" width="100" height="40" as="geometry" />
        </mxCell>
        <mxCell id="76qnz5FTZ4_R1RlBjfYo-7" value="Pedido" style="whiteSpace=wrap;html=1;align=center;" vertex="1" parent="1">
          <mxGeometry x="414" y="280" width="100" height="40" as="geometry" />
        </mxCell>
        <mxCell id="76qnz5FTZ4_R1RlBjfYo-8" value="Vendedores" style="whiteSpace=wrap;html=1;align=center;" vertex="1" parent="1">
          <mxGeometry x="210" y="420" width="100" height="40" as="geometry" />
        </mxCell>
        <mxCell id="76qnz5FTZ4_R1RlBjfYo-9" value="Site" style="whiteSpace=wrap;html=1;align=center;" vertex="1" parent="1">
          <mxGeometry x="210" y="280" width="100" height="40" as="geometry" />
        </mxCell>
        <mxCell id="76qnz5FTZ4_R1RlBjfYo-11" value="" style="endArrow=none;html=1;rounded=0;exitX=1;exitY=0.5;exitDx=0;exitDy=0;entryX=0;entryY=0.5;entryDx=0;entryDy=0;" edge="1" parent="1" source="76qnz5FTZ4_R1RlBjfYo-3" target="76qnz5FTZ4_R1RlBjfYo-9">
          <mxGeometry relative="1" as="geometry">
            <mxPoint x="200" y="360" as="sourcePoint" />
            <mxPoint x="360" y="360" as="targetPoint" />
          </mxGeometry>
        </mxCell>
        <mxCell id="76qnz5FTZ4_R1RlBjfYo-12" value="N" style="resizable=0;html=1;whiteSpace=wrap;align=left;verticalAlign=bottom;" connectable="0" vertex="1" parent="76qnz5FTZ4_R1RlBjfYo-11">
          <mxGeometry x="-1" relative="1" as="geometry" />
        </mxCell>
        <mxCell id="76qnz5FTZ4_R1RlBjfYo-13" value="1" style="resizable=0;html=1;whiteSpace=wrap;align=right;verticalAlign=bottom;" connectable="0" vertex="1" parent="76qnz5FTZ4_R1RlBjfYo-11">
          <mxGeometry x="1" relative="1" as="geometry" />
        </mxCell>
        <mxCell id="76qnz5FTZ4_R1RlBjfYo-14" value="Cadastro" style="whiteSpace=wrap;html=1;align=center;" vertex="1" parent="1">
          <mxGeometry x="210" y="160" width="100" height="40" as="geometry" />
        </mxCell>
        <mxCell id="76qnz5FTZ4_R1RlBjfYo-16" value="" style="endArrow=none;html=1;rounded=0;exitX=0.5;exitY=0;exitDx=0;exitDy=0;entryX=0.5;entryY=1;entryDx=0;entryDy=0;" edge="1" parent="1" source="76qnz5FTZ4_R1RlBjfYo-9" target="76qnz5FTZ4_R1RlBjfYo-14">
          <mxGeometry relative="1" as="geometry">
            <mxPoint x="260" y="220" as="sourcePoint" />
            <mxPoint x="420" y="220" as="targetPoint" />
          </mxGeometry>
        </mxCell>
        <mxCell id="76qnz5FTZ4_R1RlBjfYo-17" value="1" style="text;strokeColor=none;fillColor=none;spacingLeft=4;spacingRight=4;overflow=hidden;rotatable=0;points=[[0,0.5],[1,0.5]];portConstraint=eastwest;fontSize=12;whiteSpace=wrap;html=1;" vertex="1" parent="1">
          <mxGeometry x="240" y="200" width="40" height="30" as="geometry" />
        </mxCell>
        <mxCell id="76qnz5FTZ4_R1RlBjfYo-18" value="1" style="text;strokeColor=none;fillColor=none;spacingLeft=4;spacingRight=4;overflow=hidden;rotatable=0;points=[[0,0.5],[1,0.5]];portConstraint=eastwest;fontSize=12;whiteSpace=wrap;html=1;" vertex="1" parent="1">
          <mxGeometry x="260" y="260" width="40" height="30" as="geometry" />
        </mxCell>
        <mxCell id="76qnz5FTZ4_R1RlBjfYo-19" value="" style="endArrow=none;html=1;rounded=0;dashed=1;dashPattern=1 2;entryX=0;entryY=0.5;entryDx=0;entryDy=0;exitX=0.5;exitY=0;exitDx=0;exitDy=0;" edge="1" parent="1" source="76qnz5FTZ4_R1RlBjfYo-3" target="76qnz5FTZ4_R1RlBjfYo-14">
          <mxGeometry relative="1" as="geometry">
            <mxPoint y="179.76" as="sourcePoint" />
            <mxPoint x="160" y="179.76" as="targetPoint" />
            <Array as="points">
              <mxPoint x="80" y="180" />
            </Array>
          </mxGeometry>
        </mxCell>
        <mxCell id="76qnz5FTZ4_R1RlBjfYo-20" value="1" style="resizable=0;html=1;whiteSpace=wrap;align=right;verticalAlign=bottom;" connectable="0" vertex="1" parent="76qnz5FTZ4_R1RlBjfYo-19">
          <mxGeometry x="1" relative="1" as="geometry" />
        </mxCell>
        <mxCell id="76qnz5FTZ4_R1RlBjfYo-21" value="1" style="resizable=0;html=1;whiteSpace=wrap;align=right;verticalAlign=bottom;" connectable="0" vertex="1" parent="1">
          <mxGeometry x="80" y="280" as="geometry" />
        </mxCell>
        <mxCell id="76qnz5FTZ4_R1RlBjfYo-31" style="edgeStyle=orthogonalEdgeStyle;rounded=0;orthogonalLoop=1;jettySize=auto;html=1;" edge="1" parent="1" source="76qnz5FTZ4_R1RlBjfYo-22">
          <mxGeometry relative="1" as="geometry">
            <mxPoint x="260" y="160" as="targetPoint" />
          </mxGeometry>
        </mxCell>
        <mxCell id="76qnz5FTZ4_R1RlBjfYo-22" value="Nome" style="ellipse;whiteSpace=wrap;html=1;align=center;" vertex="1" parent="1">
          <mxGeometry x="330" y="-30" width="100" height="40" as="geometry" />
        </mxCell>
        <mxCell id="76qnz5FTZ4_R1RlBjfYo-28" style="edgeStyle=orthogonalEdgeStyle;rounded=0;orthogonalLoop=1;jettySize=auto;html=1;" edge="1" parent="1" source="76qnz5FTZ4_R1RlBjfYo-23">
          <mxGeometry relative="1" as="geometry">
            <mxPoint x="260" y="160" as="targetPoint" />
          </mxGeometry>
        </mxCell>
        <mxCell id="76qnz5FTZ4_R1RlBjfYo-57" style="edgeStyle=orthogonalEdgeStyle;rounded=0;orthogonalLoop=1;jettySize=auto;html=1;entryX=0;entryY=0.5;entryDx=0;entryDy=0;" edge="1" parent="1" source="76qnz5FTZ4_R1RlBjfYo-23" target="76qnz5FTZ4_R1RlBjfYo-55">
          <mxGeometry relative="1" as="geometry" />
        </mxCell>
        <mxCell id="76qnz5FTZ4_R1RlBjfYo-23" value="Endereço" style="ellipse;whiteSpace=wrap;html=1;align=center;" vertex="1" parent="1">
          <mxGeometry x="330" y="80" width="100" height="40" as="geometry" />
        </mxCell>
        <mxCell id="76qnz5FTZ4_R1RlBjfYo-24" value="CPF" style="ellipse;whiteSpace=wrap;html=1;align=center;" vertex="1" parent="1">
          <mxGeometry x="70" y="120" width="100" height="40" as="geometry" />
        </mxCell>
        <mxCell id="76qnz5FTZ4_R1RlBjfYo-29" style="edgeStyle=orthogonalEdgeStyle;rounded=0;orthogonalLoop=1;jettySize=auto;html=1;exitX=0;exitY=0.5;exitDx=0;exitDy=0;" edge="1" parent="1" source="76qnz5FTZ4_R1RlBjfYo-25">
          <mxGeometry relative="1" as="geometry">
            <mxPoint x="260" y="160" as="targetPoint" />
            <mxPoint x="280" y="50" as="sourcePoint" />
          </mxGeometry>
        </mxCell>
        <mxCell id="76qnz5FTZ4_R1RlBjfYo-25" value="Telefone" style="ellipse;whiteSpace=wrap;html=1;align=center;" vertex="1" parent="1">
          <mxGeometry x="330" y="20" width="100" height="40" as="geometry" />
        </mxCell>
        <mxCell id="76qnz5FTZ4_R1RlBjfYo-27" style="edgeStyle=orthogonalEdgeStyle;rounded=0;orthogonalLoop=1;jettySize=auto;html=1;entryX=0.5;entryY=0;entryDx=0;entryDy=0;" edge="1" parent="1" source="76qnz5FTZ4_R1RlBjfYo-26" target="76qnz5FTZ4_R1RlBjfYo-14">
          <mxGeometry relative="1" as="geometry" />
        </mxCell>
        <mxCell id="76qnz5FTZ4_R1RlBjfYo-26" value="Email" style="ellipse;whiteSpace=wrap;html=1;align=center;" vertex="1" parent="1">
          <mxGeometry x="210" y="-100" width="100" height="40" as="geometry" />
        </mxCell>
        <mxCell id="76qnz5FTZ4_R1RlBjfYo-32" value="" style="endArrow=none;html=1;rounded=0;exitX=1;exitY=0.5;exitDx=0;exitDy=0;entryX=0;entryY=0.5;entryDx=0;entryDy=0;" edge="1" parent="1" source="76qnz5FTZ4_R1RlBjfYo-9" target="76qnz5FTZ4_R1RlBjfYo-7">
          <mxGeometry relative="1" as="geometry">
            <mxPoint x="300" y="350" as="sourcePoint" />
            <mxPoint x="460" y="350" as="targetPoint" />
          </mxGeometry>
        </mxCell>
        <mxCell id="76qnz5FTZ4_R1RlBjfYo-33" value="N" style="resizable=0;html=1;whiteSpace=wrap;align=left;verticalAlign=bottom;" connectable="0" vertex="1" parent="76qnz5FTZ4_R1RlBjfYo-32">
          <mxGeometry x="-1" relative="1" as="geometry" />
        </mxCell>
        <mxCell id="76qnz5FTZ4_R1RlBjfYo-34" value="N" style="resizable=0;html=1;whiteSpace=wrap;align=right;verticalAlign=bottom;" connectable="0" vertex="1" parent="76qnz5FTZ4_R1RlBjfYo-32">
          <mxGeometry x="1" relative="1" as="geometry" />
        </mxCell>
        <mxCell id="76qnz5FTZ4_R1RlBjfYo-35" value="" style="endArrow=none;html=1;rounded=0;exitX=0.5;exitY=1;exitDx=0;exitDy=0;entryX=0.5;entryY=0;entryDx=0;entryDy=0;" edge="1" parent="1" source="76qnz5FTZ4_R1RlBjfYo-7" target="76qnz5FTZ4_R1RlBjfYo-4">
          <mxGeometry relative="1" as="geometry">
            <mxPoint x="516" y="299.76" as="sourcePoint" />
            <mxPoint x="600" y="320" as="targetPoint" />
          </mxGeometry>
        </mxCell>
        <mxCell id="76qnz5FTZ4_R1RlBjfYo-36" value="N" style="resizable=0;html=1;whiteSpace=wrap;align=left;verticalAlign=bottom;" connectable="0" vertex="1" parent="76qnz5FTZ4_R1RlBjfYo-35">
          <mxGeometry x="-1" relative="1" as="geometry">
            <mxPoint y="20" as="offset" />
          </mxGeometry>
        </mxCell>
        <mxCell id="76qnz5FTZ4_R1RlBjfYo-37" value="N" style="resizable=0;html=1;whiteSpace=wrap;align=right;verticalAlign=bottom;" connectable="0" vertex="1" parent="76qnz5FTZ4_R1RlBjfYo-35">
          <mxGeometry x="1" relative="1" as="geometry" />
        </mxCell>
        <mxCell id="76qnz5FTZ4_R1RlBjfYo-44" value="" style="endArrow=none;html=1;rounded=0;exitX=1;exitY=0.5;exitDx=0;exitDy=0;entryX=0;entryY=0.5;entryDx=0;entryDy=0;" edge="1" parent="1" source="76qnz5FTZ4_R1RlBjfYo-8" target="76qnz5FTZ4_R1RlBjfYo-4">
          <mxGeometry relative="1" as="geometry">
            <mxPoint x="320" y="450" as="sourcePoint" />
            <mxPoint x="424" y="450" as="targetPoint" />
          </mxGeometry>
        </mxCell>
        <mxCell id="76qnz5FTZ4_R1RlBjfYo-45" value="N" style="resizable=0;html=1;whiteSpace=wrap;align=left;verticalAlign=bottom;" connectable="0" vertex="1" parent="76qnz5FTZ4_R1RlBjfYo-44">
          <mxGeometry x="-1" relative="1" as="geometry" />
        </mxCell>
        <mxCell id="76qnz5FTZ4_R1RlBjfYo-46" value="N" style="resizable=0;html=1;whiteSpace=wrap;align=right;verticalAlign=bottom;" connectable="0" vertex="1" parent="76qnz5FTZ4_R1RlBjfYo-44">
          <mxGeometry x="1" relative="1" as="geometry" />
        </mxCell>
        <mxCell id="76qnz5FTZ4_R1RlBjfYo-49" value="CNPJ" style="ellipse;whiteSpace=wrap;html=1;align=center;" vertex="1" parent="1">
          <mxGeometry x="70" y="25" width="100" height="40" as="geometry" />
        </mxCell>
        <mxCell id="76qnz5FTZ4_R1RlBjfYo-51" value="" style="endArrow=none;html=1;rounded=0;exitX=0.5;exitY=1;exitDx=0;exitDy=0;entryX=0.5;entryY=0;entryDx=0;entryDy=0;" edge="1" parent="1" source="76qnz5FTZ4_R1RlBjfYo-49" target="76qnz5FTZ4_R1RlBjfYo-24">
          <mxGeometry relative="1" as="geometry">
            <mxPoint x="70" y="59.52" as="sourcePoint" />
            <mxPoint x="230" y="59.52" as="targetPoint" />
          </mxGeometry>
        </mxCell>
        <mxCell id="76qnz5FTZ4_R1RlBjfYo-52" value="" style="endArrow=none;html=1;rounded=0;exitX=0.5;exitY=0;exitDx=0;exitDy=0;" edge="1" parent="1" source="76qnz5FTZ4_R1RlBjfYo-24">
          <mxGeometry relative="1" as="geometry">
            <mxPoint x="80" y="50" as="sourcePoint" />
            <mxPoint x="260" y="90" as="targetPoint" />
            <Array as="points">
              <mxPoint x="120" y="90" />
              <mxPoint x="190" y="90" />
            </Array>
          </mxGeometry>
        </mxCell>
        <mxCell id="76qnz5FTZ4_R1RlBjfYo-53" value="1:1" style="text;strokeColor=none;fillColor=none;spacingLeft=4;spacingRight=4;overflow=hidden;rotatable=0;points=[[0,0.5],[1,0.5]];portConstraint=eastwest;fontSize=12;whiteSpace=wrap;html=1;" vertex="1" parent="1">
          <mxGeometry x="220" y="65" width="40" height="30" as="geometry" />
        </mxCell>
        <mxCell id="76qnz5FTZ4_R1RlBjfYo-56" style="edgeStyle=orthogonalEdgeStyle;rounded=0;orthogonalLoop=1;jettySize=auto;html=1;entryX=0.5;entryY=0;entryDx=0;entryDy=0;" edge="1" parent="1" source="76qnz5FTZ4_R1RlBjfYo-55" target="76qnz5FTZ4_R1RlBjfYo-7">
          <mxGeometry relative="1" as="geometry" />
        </mxCell>
        <mxCell id="76qnz5FTZ4_R1RlBjfYo-55" value="Frete" style="ellipse;whiteSpace=wrap;html=1;align=center;" vertex="1" parent="1">
          <mxGeometry x="414" y="190" width="100" height="40" as="geometry" />
        </mxCell>
        <mxCell id="76qnz5FTZ4_R1RlBjfYo-63" style="edgeStyle=orthogonalEdgeStyle;rounded=0;orthogonalLoop=1;jettySize=auto;html=1;entryX=1;entryY=0.5;entryDx=0;entryDy=0;" edge="1" parent="1" source="76qnz5FTZ4_R1RlBjfYo-58" target="76qnz5FTZ4_R1RlBjfYo-4">
          <mxGeometry relative="1" as="geometry">
            <Array as="points">
              <mxPoint x="620" y="440" />
            </Array>
          </mxGeometry>
        </mxCell>
        <mxCell id="76qnz5FTZ4_R1RlBjfYo-58" value="Descrição" style="ellipse;whiteSpace=wrap;html=1;align=center;" vertex="1" parent="1">
          <mxGeometry x="570" y="380" width="100" height="40" as="geometry" />
        </mxCell>
        <mxCell id="76qnz5FTZ4_R1RlBjfYo-64" style="edgeStyle=orthogonalEdgeStyle;rounded=0;orthogonalLoop=1;jettySize=auto;html=1;" edge="1" parent="1" source="76qnz5FTZ4_R1RlBjfYo-59" target="76qnz5FTZ4_R1RlBjfYo-4">
          <mxGeometry relative="1" as="geometry">
            <Array as="points">
              <mxPoint x="620" y="440" />
            </Array>
          </mxGeometry>
        </mxCell>
        <mxCell id="76qnz5FTZ4_R1RlBjfYo-59" value="Valor" style="ellipse;whiteSpace=wrap;html=1;align=center;" vertex="1" parent="1">
          <mxGeometry x="570" y="460" width="100" height="40" as="geometry" />
        </mxCell>
        <mxCell id="76qnz5FTZ4_R1RlBjfYo-61" style="edgeStyle=orthogonalEdgeStyle;rounded=0;orthogonalLoop=1;jettySize=auto;html=1;entryX=1;entryY=0.5;entryDx=0;entryDy=0;" edge="1" parent="1" source="76qnz5FTZ4_R1RlBjfYo-60" target="76qnz5FTZ4_R1RlBjfYo-4">
          <mxGeometry relative="1" as="geometry" />
        </mxCell>
        <mxCell id="76qnz5FTZ4_R1RlBjfYo-60" value="Categoria" style="ellipse;whiteSpace=wrap;html=1;align=center;" vertex="1" parent="1">
          <mxGeometry x="660" y="420" width="100" height="40" as="geometry" />
        </mxCell>
        <mxCell id="76qnz5FTZ4_R1RlBjfYo-66" style="edgeStyle=orthogonalEdgeStyle;rounded=0;orthogonalLoop=1;jettySize=auto;html=1;entryX=1;entryY=0.5;entryDx=0;entryDy=0;" edge="1" parent="1" target="76qnz5FTZ4_R1RlBjfYo-7">
          <mxGeometry relative="1" as="geometry">
            <mxPoint x="630" y="300" as="sourcePoint" />
          </mxGeometry>
        </mxCell>
        <mxCell id="76qnz5FTZ4_R1RlBjfYo-68" style="edgeStyle=orthogonalEdgeStyle;rounded=0;orthogonalLoop=1;jettySize=auto;html=1;entryX=1;entryY=0.5;entryDx=0;entryDy=0;" edge="1" parent="1" source="76qnz5FTZ4_R1RlBjfYo-67" target="76qnz5FTZ4_R1RlBjfYo-7">
          <mxGeometry relative="1" as="geometry">
            <Array as="points">
              <mxPoint x="610" y="250" />
              <mxPoint x="610" y="300" />
            </Array>
          </mxGeometry>
        </mxCell>
        <mxCell id="76qnz5FTZ4_R1RlBjfYo-67" value="Descrição" style="ellipse;whiteSpace=wrap;html=1;align=center;" vertex="1" parent="1">
          <mxGeometry x="630" y="230" width="100" height="40" as="geometry" />
        </mxCell>
        <mxCell id="76qnz5FTZ4_R1RlBjfYo-69" value="Local" style="ellipse;whiteSpace=wrap;html=1;align=center;" vertex="1" parent="1">
          <mxGeometry x="412" y="650" width="100" height="40" as="geometry" />
        </mxCell>
        <mxCell id="76qnz5FTZ4_R1RlBjfYo-71" value="" style="endArrow=none;html=1;rounded=0;entryX=0.5;entryY=1;entryDx=0;entryDy=0;exitX=0.5;exitY=0;exitDx=0;exitDy=0;" edge="1" parent="1" source="76qnz5FTZ4_R1RlBjfYo-69" target="76qnz5FTZ4_R1RlBjfYo-5">
          <mxGeometry relative="1" as="geometry">
            <mxPoint x="300" y="620" as="sourcePoint" />
            <mxPoint x="460" y="620" as="targetPoint" />
          </mxGeometry>
        </mxCell>
        <mxCell id="76qnz5FTZ4_R1RlBjfYo-72" value="1" style="text;strokeColor=none;fillColor=none;spacingLeft=4;spacingRight=4;overflow=hidden;rotatable=0;points=[[0,0.5],[1,0.5]];portConstraint=eastwest;fontSize=12;whiteSpace=wrap;html=1;" vertex="1" parent="1">
          <mxGeometry x="442" y="590" width="40" height="30" as="geometry" />
        </mxCell>
        <mxCell id="76qnz5FTZ4_R1RlBjfYo-73" value="1" style="text;strokeColor=none;fillColor=none;spacingLeft=4;spacingRight=4;overflow=hidden;rotatable=0;points=[[0,0.5],[1,0.5]];portConstraint=eastwest;fontSize=12;whiteSpace=wrap;html=1;" vertex="1" parent="1">
          <mxGeometry x="460" y="620" width="40" height="30" as="geometry" />
        </mxCell>
        <mxCell id="76qnz5FTZ4_R1RlBjfYo-74" value="1" style="text;strokeColor=none;fillColor=none;spacingLeft=4;spacingRight=4;overflow=hidden;rotatable=0;points=[[0,0.5],[1,0.5]];portConstraint=eastwest;fontSize=12;whiteSpace=wrap;html=1;" vertex="1" parent="1">
          <mxGeometry x="460" y="520" width="40" height="30" as="geometry" />
        </mxCell>
        <mxCell id="76qnz5FTZ4_R1RlBjfYo-75" value="N" style="text;strokeColor=none;fillColor=none;spacingLeft=4;spacingRight=4;overflow=hidden;rotatable=0;points=[[0,0.5],[1,0.5]];portConstraint=eastwest;fontSize=12;whiteSpace=wrap;html=1;" vertex="1" parent="1">
          <mxGeometry x="440" y="460" width="40" height="30" as="geometry" />
        </mxCell>
        <mxCell id="76qnz5FTZ4_R1RlBjfYo-77" value="1" style="text;strokeColor=none;fillColor=none;spacingLeft=4;spacingRight=4;overflow=hidden;rotatable=0;points=[[0,0.5],[1,0.5]];portConstraint=eastwest;fontSize=12;whiteSpace=wrap;html=1;" vertex="1" parent="1">
          <mxGeometry x="512" y="540" width="40" height="30" as="geometry" />
        </mxCell>
        <mxCell id="76qnz5FTZ4_R1RlBjfYo-78" value="N" style="text;strokeColor=none;fillColor=none;spacingLeft=4;spacingRight=4;overflow=hidden;rotatable=0;points=[[0,0.5],[1,0.5]];portConstraint=eastwest;fontSize=12;whiteSpace=wrap;html=1;" vertex="1" parent="1">
          <mxGeometry x="610" y="540" width="40" height="30" as="geometry" />
        </mxCell>
        <mxCell id="76qnz5FTZ4_R1RlBjfYo-81" style="edgeStyle=orthogonalEdgeStyle;rounded=0;orthogonalLoop=1;jettySize=auto;html=1;entryX=0;entryY=0.5;entryDx=0;entryDy=0;" edge="1" parent="1" source="76qnz5FTZ4_R1RlBjfYo-79" target="76qnz5FTZ4_R1RlBjfYo-8">
          <mxGeometry relative="1" as="geometry">
            <Array as="points">
              <mxPoint x="120" y="440" />
            </Array>
          </mxGeometry>
        </mxCell>
        <mxCell id="76qnz5FTZ4_R1RlBjfYo-79" value="Local" style="ellipse;whiteSpace=wrap;html=1;align=center;" vertex="1" parent="1">
          <mxGeometry x="70" y="460" width="100" height="40" as="geometry" />
        </mxCell>
        <mxCell id="76qnz5FTZ4_R1RlBjfYo-82" style="edgeStyle=orthogonalEdgeStyle;rounded=0;orthogonalLoop=1;jettySize=auto;html=1;entryX=0;entryY=0.5;entryDx=0;entryDy=0;" edge="1" parent="1" source="76qnz5FTZ4_R1RlBjfYo-80" target="76qnz5FTZ4_R1RlBjfYo-8">
          <mxGeometry relative="1" as="geometry">
            <Array as="points">
              <mxPoint x="120" y="440" />
            </Array>
          </mxGeometry>
        </mxCell>
        <mxCell id="76qnz5FTZ4_R1RlBjfYo-80" value="Razão social" style="ellipse;whiteSpace=wrap;html=1;align=center;" vertex="1" parent="1">
          <mxGeometry x="70" y="380" width="100" height="40" as="geometry" />
        </mxCell>
        <mxCell id="76qnz5FTZ4_R1RlBjfYo-85" value="1:1" style="text;strokeColor=none;fillColor=none;spacingLeft=4;spacingRight=4;overflow=hidden;rotatable=0;points=[[0,0.5],[1,0.5]];portConstraint=eastwest;fontSize=12;whiteSpace=wrap;html=1;" vertex="1" parent="1">
          <mxGeometry x="552" y="280" width="40" height="30" as="geometry" />
        </mxCell>
        <mxCell id="76qnz5FTZ4_R1RlBjfYo-88" value="Entrega" style="whiteSpace=wrap;html=1;align=center;" vertex="1" parent="1">
          <mxGeometry x="630" y="280" width="100" height="40" as="geometry" />
        </mxCell>
        <mxCell id="76qnz5FTZ4_R1RlBjfYo-91" style="edgeStyle=orthogonalEdgeStyle;rounded=0;orthogonalLoop=1;jettySize=auto;html=1;entryX=1;entryY=0.5;entryDx=0;entryDy=0;" edge="1" parent="1" source="76qnz5FTZ4_R1RlBjfYo-89" target="76qnz5FTZ4_R1RlBjfYo-88">
          <mxGeometry relative="1" as="geometry">
            <Array as="points">
              <mxPoint x="820" y="300" />
            </Array>
          </mxGeometry>
        </mxCell>
        <mxCell id="76qnz5FTZ4_R1RlBjfYo-89" value="Código de rastreio" style="ellipse;whiteSpace=wrap;html=1;align=center;" vertex="1" parent="1">
          <mxGeometry x="770" y="240" width="100" height="40" as="geometry" />
        </mxCell>
        <mxCell id="76qnz5FTZ4_R1RlBjfYo-92" style="edgeStyle=orthogonalEdgeStyle;rounded=0;orthogonalLoop=1;jettySize=auto;html=1;" edge="1" parent="1" source="76qnz5FTZ4_R1RlBjfYo-90" target="76qnz5FTZ4_R1RlBjfYo-88">
          <mxGeometry relative="1" as="geometry">
            <Array as="points">
              <mxPoint x="820" y="300" />
            </Array>
          </mxGeometry>
        </mxCell>
        <mxCell id="76qnz5FTZ4_R1RlBjfYo-90" value="Status" style="ellipse;whiteSpace=wrap;html=1;align=center;" vertex="1" parent="1">
          <mxGeometry x="770" y="320" width="100" height="40" as="geometry" />
        </mxCell>
        <mxCell id="76qnz5FTZ4_R1RlBjfYo-94" style="edgeStyle=orthogonalEdgeStyle;rounded=0;orthogonalLoop=1;jettySize=auto;html=1;entryX=0.5;entryY=0;entryDx=0;entryDy=0;" edge="1" parent="1" source="76qnz5FTZ4_R1RlBjfYo-93" target="76qnz5FTZ4_R1RlBjfYo-14">
          <mxGeometry relative="1" as="geometry" />
        </mxCell>
        <mxCell id="76qnz5FTZ4_R1RlBjfYo-93" value="Forma de pagamento" style="ellipse;whiteSpace=wrap;html=1;align=center;" vertex="1" parent="1">
          <mxGeometry x="70" y="-50" width="100" height="40" as="geometry" />
        </mxCell>
        <mxCell id="76qnz5FTZ4_R1RlBjfYo-95" value="N:N" style="text;strokeColor=none;fillColor=none;spacingLeft=4;spacingRight=4;overflow=hidden;rotatable=0;points=[[0,0.5],[1,0.5]];portConstraint=eastwest;fontSize=12;whiteSpace=wrap;html=1;" vertex="1" parent="1">
          <mxGeometry x="190" y="-50" width="40" height="30" as="geometry" />
        </mxCell>
        <mxCell id="76qnz5FTZ4_R1RlBjfYo-96" value="N:N" style="text;strokeColor=none;fillColor=none;spacingLeft=4;spacingRight=4;overflow=hidden;rotatable=0;points=[[0,0.5],[1,0.5]];portConstraint=eastwest;fontSize=12;whiteSpace=wrap;html=1;" vertex="1" parent="1">
          <mxGeometry x="280" y="80" width="40" height="30" as="geometry" />
        </mxCell>
        <mxCell id="76qnz5FTZ4_R1RlBjfYo-98" value="1:1" style="text;strokeColor=none;fillColor=none;spacingLeft=4;spacingRight=4;overflow=hidden;rotatable=0;points=[[0,0.5],[1,0.5]];portConstraint=eastwest;fontSize=12;whiteSpace=wrap;html=1;" vertex="1" parent="1">
          <mxGeometry x="280" y="20" width="40" height="30" as="geometry" />
        </mxCell>
        <mxCell id="76qnz5FTZ4_R1RlBjfYo-99" value="1:1" style="text;strokeColor=none;fillColor=none;spacingLeft=4;spacingRight=4;overflow=hidden;rotatable=0;points=[[0,0.5],[1,0.5]];portConstraint=eastwest;fontSize=12;whiteSpace=wrap;html=1;" vertex="1" parent="1">
          <mxGeometry x="280" y="-30" width="40" height="30" as="geometry" />
        </mxCell>
        <mxCell id="76qnz5FTZ4_R1RlBjfYo-100" value="1:1" style="text;strokeColor=none;fillColor=none;spacingLeft=4;spacingRight=4;overflow=hidden;rotatable=0;points=[[0,0.5],[1,0.5]];portConstraint=eastwest;fontSize=12;whiteSpace=wrap;html=1;" vertex="1" parent="1">
          <mxGeometry x="380" y="150" width="40" height="30" as="geometry" />
        </mxCell>
        <mxCell id="76qnz5FTZ4_R1RlBjfYo-101" value="1:1" style="text;strokeColor=none;fillColor=none;spacingLeft=4;spacingRight=4;overflow=hidden;rotatable=0;points=[[0,0.5],[1,0.5]];portConstraint=eastwest;fontSize=12;whiteSpace=wrap;html=1;" vertex="1" parent="1">
          <mxGeometry x="760" y="280" width="40" height="30" as="geometry" />
        </mxCell>
        <mxCell id="76qnz5FTZ4_R1RlBjfYo-103" value="1:1" style="text;strokeColor=none;fillColor=none;spacingLeft=4;spacingRight=4;overflow=hidden;rotatable=0;points=[[0,0.5],[1,0.5]];portConstraint=eastwest;fontSize=12;whiteSpace=wrap;html=1;" vertex="1" parent="1">
          <mxGeometry x="552" y="420" width="40" height="30" as="geometry" />
        </mxCell>
        <mxCell id="76qnz5FTZ4_R1RlBjfYo-104" value="1:1" style="text;strokeColor=none;fillColor=none;spacingLeft=4;spacingRight=4;overflow=hidden;rotatable=0;points=[[0,0.5],[1,0.5]];portConstraint=eastwest;fontSize=12;whiteSpace=wrap;html=1;" vertex="1" parent="1">
          <mxGeometry x="150" y="420" width="40" height="30" as="geometry" />
        </mxCell>
      </root>
    </mxGraphModel>
  </diagram>
</mxfile>
